<svg viewBox="0 0 3572 911" xmlns="http://www.w3.org/2000/svg" fill-rule="evenodd" clip-rule="evenodd" stroke-linejoin="round" stroke-miterlimit="2">
  <path fill="#3b6793" d="M1207.67 227.095258l393-227.090727v457.0008l-393 227.090727z"/>
  <path fill="#497eb6" d="M1994.09702 227.095258L1600.66079.004531v457.0008l393.43623 227.090727z"/>
  <path fill="#26425f" d="M1207.6787 683.406355l393 226.999944 393.001-226.40947-393-226.999944z"/>
  <path fill="#d7d7d7" d="M1994.1082926 227.0974834l-20.8031799-12.0076041v457.0008l20.8031799 12.0076041zM1207.6717074 227.0865134l20.8031799-12.0076041v456.3177l-20.8031799 12.0076041z"/>
  <path fill="#d7d7d7" d="M1207.67 227.089538l393-227.090727v23.9982l-393 227.090727z"/>
  <path fill="#d7d7d7" d="M1994.09702 227.089538L1600.66079-.001189v23.9982l393.43623 227.090727zM1994.11 683.319462l-393 227.090727v-23.9982l393-227.090727z"/>
  <path fill="#d7d7d7" d="M1207.67719 683.319462l393.43623 227.090727v-23.9982l-393.43623-227.090727zM394.7097176 227.09h23.99989909v457H394.7097176zM997.4167176 227.0845772h23.99989909v458.40756H997.4167176zM.0044176 228.49933h23.99989909v457H.0044176zM217.5977176 228.49919973h23.99989909v135.590529H217.5977176zM2169.57174 328.255058L1600.87323.00338v24.12378l568.69851 328.251678zM3178.4146 557.710014l-416.6979-240.517572v24.12378l416.6979 240.517572zM2169.585308 328.247748l217.056258-125.284863v24.12378l-217.056258 125.284863zM2386.65022 202.965286h397.43697v24.12378h-397.43697zM2367.64234 659.965286h416.43459v24.12378h-416.43459zM2367.64199 317.185286h219.217365v24.12378H2367.64199z"/>
  <path fill="#d7d7d7" d="M2391.764714 227.0863v457.00005h-24.12378V227.0863zM2761.7357486 202.97h23.9996535v481.124h-23.9996535zM3154.4327486 202.97h23.9996535v481.124h-23.9996535zM3547.1297486 341.31665347h23.9996535v342.77727492h-23.9996535z"/>
  <g>
    <path fill="#d7d7d7" d="M3571.11867573 202.9767486v23.9996535h-416.69716628v-23.9996535z"/>
  </g>
  <g>
    <path fill="#d7d7d7" d="M1228.1050266 227.0967486v23.9996535H394.69241132v-23.9996535z"/>
  </g>
  <g>
    <path fill="#d7d7d7" d="M811.4138647 661.5067486v23.9996535H.00304994v-23.9996535z"/>
  </g>
  <g>
    <path fill="#d7d7d7" d="M613.4120985 340.0967486v23.9996535H.0030547v-23.9996535z"/>
  </g>
  <g>
    <path fill="#d7d7d7" d="M241.59277632 227.0967486v23.9996535H-.00075354v-23.9996535z"/>
  </g>
  <g>
    <path fill="#d7d7d7" d="M3571.11867573 660.0967486v23.9996535h-416.69716628v-23.9996535z"/>
  </g>
  <g>
    <path fill="#d7d7d7" d="M3571.12017313 341.3267486v23.9996535h-194.6969302v-23.9996535z"/>
  </g>
</svg>
