<svg viewBox="-118.63 -120.622 737.26 741.244" xmlns="http://www.w3.org/2000/svg" xmlns:xlink="http://www.w3.org/1999/xlink"><defs><radialGradient id="b" gradientUnits="userSpaceOnUse" gradientTransform="matrix(1 0 0 .92474 0 35.97)" cx="370.404" cy="477.944" r="362.72" xlink:href="#linearGradient3795"/><filter id="a" color-interpolation-filters="sRGB"><feGaussianBlur stdDeviation="5" result="result1"/><feComposite in2="result1" operator="arithmetic" k2="2" in="result1"/></filter></defs><g transform="translate(-120.43 -228.212)"><path d="M733.15 478.17a362.682 362.682 0 11-725.364 0 362.682 362.682 0 11725.364 0z" fill="#333" stroke-width="4.99999353" stroke="#000"/><path d="M435.327 402.73c20.443-20.442 35.324 7.299 25.504 25.505-11.894 22.05-42.145 23.642-60.83 9.821-24.855-18.386-26.349-54.938-7.415-78.067 22.743-27.782 65.056-29.098 91.67-6.188 30.503 26.256 31.679 73.658 5.411 103.27-29.283 33.011-81.257 34.08-113.542 4.862-35.34-31.983-36.323-88.13-4.448-122.852 34.441-37.517 94.448-38.432 131.423-4.123 39.566 36.713 40.424 100.322 3.858 139.403-38.834 41.505-105.832 42.316-146.898 3.637-43.349-40.83-44.119-111.037-3.448-153.982 42.722-45.111 115.98-45.845 160.716-3.286 46.8 44.522 47.502 120.697 3.144 167.146-46.244 48.422-125.215 49.097-173.307 3.017-49.987-47.895-50.638-129.556-2.906-179.23 49.485-51.5 133.74-52.127 184.941-2.805 52.963 51.018 53.57 137.78 2.713 190.46-52.501 54.382-141.69 54.97-195.802 2.629-55.762-53.939-56.334-145.484-2.553-200.986 55.333-57.104 149.169-57.66 206.022-2.483 58.412 56.69 58.954 152.754 2.418 210.924-58.01 59.688-156.246 60.216-215.7 2.358-60.933-59.298-61.45-159.653-2.302-220.36 60.555-62.151 162.98-62.656 225.888-2.32 59.983 64.116 56.93 168.729-5.264 229.72-62.784 61.569-164.905 58.601-224.319-6.04-59.972-65.248-56.866-171.582 6.358-233.573 63.813-62.568 167.602-59.548 227.98 6.154 60.938 66.31 57.779 174.366-6.475 237.355-64.843 63.567-170.298 60.495-231.643-6.268-61.902-67.37-58.69-177.148 6.594-241.137 65.872-64.566 172.995-61.442 235.305 6.382 62.867 68.432 59.6 179.932-6.712 244.92-66.901 65.564-175.691 62.389-238.966-6.497-63.833-69.492-60.513-182.714 6.829-248.701 67.931-66.564 178.388-63.337 242.628 6.61 64.798 70.554 61.425 185.498-6.947 252.483-68.96 67.564-181.084 64.284-246.29-6.723-65.763-71.616-62.336-188.281 7.065-256.266 69.99-68.562 183.78-65.231 249.952 6.838 66.729 72.676 63.248 191.064-7.183 260.048-71.02 69.56-186.477 66.178-253.614-6.952-67.694-73.738-64.159-193.847 7.3-263.83 72.05-70.56 189.175-67.125 257.276 7.066 68.66 74.799 65.071 196.63-7.418 267.612-73.078 71.559-191.87 68.072-260.937-7.18-69.625-75.86-65.983-199.413 7.536-271.394 74.108-72.559 194.567-69.02 264.6 7.294 70.59 76.92 66.893 202.196-7.654 275.176-75.138 73.557-197.264 69.966-268.262-7.408-71.555-77.983-67.806-204.98 7.771-278.959 76.167-74.556 199.961-70.913 271.924 7.523 72.52 79.043 68.717 207.762-7.89 282.74-77.196 75.555-202.656 71.86-275.585-7.636-73.485-80.105-69.629-210.545 8.007-286.523 78.226-76.554 205.354-72.808 279.247 7.75 74.451 81.167 70.541 213.329-8.124 290.305-79.256 77.554-208.05 73.755-282.91-7.864-75.415-82.227-71.452-216.111 8.243-294.087 80.285-78.552 210.747-74.702 286.571 7.979 76.382 83.288 72.364 218.894-8.36 297.868-81.314 79.552-213.444 75.65-290.233-8.092-77.347-84.35-73.276-221.677 8.478-301.651 82.344-80.55 216.14-76.596 293.895 8.206 78.312 85.411 74.187 224.46-8.596 305.433-83.373 81.55-218.837 77.544-297.557-8.32-79.277-86.472-75.099-227.243 8.714-309.215 84.403-82.549 221.533-78.49 301.218 8.434 80.243 87.534 76.011 230.027-8.831 312.998-85.432 83.547-224.23 79.437-304.88-8.549-81.208-88.594-76.923-232.81 8.95-316.78 86.46-84.546 226.925-80.384 308.541 8.663 82.173 89.656 77.834 235.593-9.067 320.562-87.491 85.546-229.623 81.332-312.204-8.777-83.138-90.717-78.746-238.375 9.185-324.343 88.52-86.545 232.32-82.28 315.866 8.89 84.104 91.778 79.657 241.159-9.303 328.126-89.55 87.544-235.016 83.226-319.527-9.005-85.07-92.839-80.57-243.941 9.42-331.908 90.58-88.542 237.712-84.173 323.19 9.12 86.034 93.9 81.48 246.724-9.539 335.689-91.609 89.542-240.409 85.12-326.851-9.233-87-94.961-82.392-249.507 9.656-339.472 92.638-90.54 243.105-86.067 330.513 9.347 87.965 96.023 83.304 252.29-9.774 343.254-93.667 91.54-245.802 87.015-334.175-9.46-88.93-97.085-84.215-255.074 9.892-347.037 94.697-92.539 248.498-87.962 337.837 9.575 89.895 98.145 85.127 257.857-10.01 350.818-95.726 93.538-251.195 88.91-341.498-9.689-90.861-99.206-86.04-260.64 10.127-354.6 96.756-94.537 253.892-89.856 345.16 9.803 91.826 100.268 86.951 263.423-10.245 358.382-97.785 95.537-256.588 90.804-348.822-9.917-92.791-101.328-87.862-266.205 10.363-362.164 98.815-96.535 259.285-91.75 352.484 10.031 93.757 102.39 88.774 268.989-10.48 365.947-99.845 97.534-261.982 92.697-356.147-10.146-94.722-103.45-89.685-271.771 10.598-369.728 100.875-98.534 264.679-93.645 359.809 10.259 95.687 104.512 90.597 274.555-10.716 373.51-101.904 99.533-267.375 94.592-363.47-10.373-96.653-105.573-91.51-277.337 10.833-377.292 102.933-100.532 270.072-95.54 367.132 10.487 97.618 106.634 92.42 280.12-10.951 381.075-103.963 101.53-272.768 96.486-370.794-10.602-98.583-107.695-93.332-282.904 11.07-384.857 104.991-102.53 275.464-97.433 374.455 10.716 99.548 108.757 94.244 285.687-11.187 388.64C513.024 704.147 340.885 699 240.928 589.79c-100.513-109.819-95.155-288.47 11.305-392.422 107.051-104.527 280.858-99.327 381.78 10.944 101.478 110.88 96.067 291.253-11.423 396.203-108.08 105.527-283.554 100.275-385.441-11.057-102.444-111.94-96.98-294.037 11.54-399.986C357.8 86.946 534.94 92.251 637.792 204.644c103.41 113.001 97.89 296.819-11.658 403.767-110.14 107.525-288.947 102.169-392.765-11.285-104.375-114.063-98.802-299.603 11.776-407.55C356.314 81.052 536.79 86.46 641.572 200.976c105.34 115.124 99.714 302.385-11.894 411.331C517.48 721.83 335.338 716.37 229.589 600.794 123.284 484.608 128.964 295.625 241.601 185.68c113.228-110.522 297.037-105.01 403.75 11.628 107.271 117.246 101.538 307.951-12.129 418.896C518.965 727.724 333.49 722.16 225.81 604.462c-108.236-118.308-102.45-310.735 12.247-422.678C353.343 69.264 540.487 74.879 649.13 193.64c109.201 119.368 103.36 313.517-12.365 426.46C520.45 733.619 331.64 727.95 222.03 608.13c-110.166-120.43-104.272-316.3 12.483-430.242C351.858 63.37 542.336 69.089 652.91 189.972c111.132 121.49 105.184 319.083-12.6 434.024-118.376 115.517-310.52 109.746-422.06-12.198C106.152 489.246 112.154 289.93 230.968 173.99 350.373 57.475 544.185 63.3 656.69 186.304c113.062 123.613 107.007 324.649-12.837 441.588-120.433 117.515-315.913 111.64-429.383-12.426-114.028-124.675-107.919-327.433 12.954-445.37C348.888 51.58 546.035 57.507 660.47 182.635 775.463 308.37 769.3 512.85 647.398 631.787c-122.492 119.513-321.306 113.534-436.707-12.654-115.958-126.797-109.742-332.999 13.19-452.935C347.403 45.687 547.883 51.718 664.25 178.967c116.923 127.859 110.654 335.782-13.307 456.717-124.552 121.512-326.7 115.429-444.032-12.882-117.888-128.92-111.565-338.565 13.425-460.499C345.918 39.793 549.733 45.927 668.03 175.299c118.853 129.98 112.477 341.348-13.543 464.281-126.61 123.51-332.093 117.323-451.355-13.11-119.82-131.042-113.389-344.13 13.66-468.063 127.64-124.509 334.79-118.27 455.017 13.224 120.785 132.103 114.3 346.914-13.778 471.846-128.67 125.507-337.486 119.217-458.679-13.339C77.602 496.974 84.14 280.441 213.248 154.511c129.7-126.507 340.183-120.164 462.34 13.452 122.716 134.226 116.125 352.48-14.013 479.41-130.729 127.505-342.879 121.11-466.003-13.567C71.892 498.52 78.537 278.543 209.704 150.615 341.462 22.11 555.28 28.556 679.37 164.295c124.645 136.348 117.946 358.046-14.25 486.974-132.787 129.504-348.272 123.005-473.326-13.795C66.182 500.065 72.934 276.645 206.16 146.718 339.977 16.216 557.13 22.766 683.148 160.628c126.576 138.47 119.77 363.611-14.485 494.537-134.846 131.502-353.665 124.9-480.65-14.023-127.541-139.531-120.682-366.395 14.603-498.32 135.876-132.5 356.362-125.847 484.312 14.137 128.507 140.593 121.593 369.178-14.721 502.102-136.905 133.5-359.058 126.794-487.974-14.25C54.761 503.156 61.728 272.848 199.072 138.925 337.007 4.427 560.827 11.186 690.708 153.291c130.437 142.715 123.416 374.744-14.957 509.666C536.787 798.455 311.3 791.646 180.454 648.478 49.05 504.702 56.125 270.951 195.528 135.03 335.52-1.467 562.676 5.395 694.488 149.623c132.367 144.837 125.24 380.31-15.193 517.23-141.023 137.497-369.844 130.583-502.62-14.707C43.34 506.248 50.521 269.053 191.983 131.134 334.036-7.361 564.525-.396 698.267 145.954c134.298 146.96 127.063 385.877-15.428 524.796-143.082 139.494-375.237 132.476-509.945-14.935C37.631 507.794 44.92 267.155 188.44 127.238" transform="matrix(.03014 .99952 -.96774 .03113 745.668 30.696)" fill="none" stroke="#666" stroke-width="1.016"/><path d="M733.124 477.564l-725.44.811C9.57 614.957 79.64 747.012 232.299 813.365l276.097-670.842c133.032 57.036 221.045 178.59 224.729 335.04z" filter="url(#a)" fill="url(#b)"/><path d="M498.834 478.17c0 98.815-106.972 160.575-192.549 111.167-39.716-22.93-64.183-65.307-64.183-111.167 0-98.816 106.972-160.576 192.549-111.168 39.716 22.93 64.183 65.307 64.183 111.168z" fill="#5b666c"/><g transform="matrix(.66943 0 0 .66943 34.897 10.253)"><path fill="#3b6793" d="M365.383 620.235l135.762-78.448v157.871l-135.762 78.448z"/><path fill="#497eb6" d="M637.054 620.235l-135.912-78.448v157.871l135.912 78.448z"/><path fill="#26425f" d="M365.386 777.868l135.762 78.417 135.762-78.213-135.762-78.417z"/></g><path d="M382.273 478.17a11.805 11.805 0 11-23.61 0 11.805 11.805 0 1123.61 0z" fill="#fff"/></g></svg>